<svg width="50" height="68" viewBox="0 0 50 68" fill="#30302E" xmlns="http://www.w3.org/2000/svg">
<g filter="url(#filter0_d)">
<path fill-rule="evenodd" clip-rule="evenodd" d="M45.4955 8.57195C45.5329 8.77754 45.5329 9.00181 45.5329 9.22608C45.5329 14.59 45.5329 19.9538 45.5329 25.3177C42.7482 23.8225 39.9821 22.3087 37.1974 20.8135C37.1974 18.7951 37.1974 16.7953 37.1974 14.7768C33.6838 13.4873 30.1889 12.1977 26.6753 10.9081C26.1146 10.7025 25.5352 10.497 24.9371 10.497C24.4138 10.5157 23.9092 10.7025 23.4046 10.8708C20.3022 12.0108 17.181 13.1696 14.0786 14.3096C16.4334 18.9633 21.0871 21.9162 25.7595 24.0468C30.4318 26.1961 35.4032 27.7847 39.5897 30.8124C41.7203 32.3636 43.6453 34.326 44.6171 36.8117C45.5516 39.1479 45.5516 41.7457 45.5516 44.2688C45.5516 46.4741 45.5329 48.6608 45.5329 50.8662C45.5329 51.2213 45.5329 51.595 45.3273 51.8941C45.1217 52.2118 44.7666 52.3613 44.4115 52.4921C38.4309 54.847 32.4503 57.1832 26.4884 59.5381C26.0398 59.7063 25.5726 59.8932 25.1053 59.9118C24.526 59.9305 23.984 59.725 23.4607 59.5007C17.5174 57.1645 11.5742 54.8283 5.61225 52.4921C5.29453 52.3613 4.95812 52.2305 4.73385 51.9501C4.49088 51.6137 4.47219 51.1839 4.47219 50.754C4.47219 45.3902 4.47219 40.045 4.47219 34.6811C7.25692 36.1763 10.023 37.6901 12.8077 39.1853C12.8077 41.2037 12.8077 43.2035 12.8077 45.2219C16.3213 46.5115 19.8162 47.8011 23.3298 49.0907C23.8718 49.2962 24.4138 49.4831 24.9932 49.4831C25.5913 49.4831 26.1519 49.2776 26.7126 49.072C29.3292 48.1188 31.927 47.147 34.5435 46.1938C34.8239 46.0817 35.1229 45.9695 35.3285 45.7453C35.534 45.5023 35.6088 45.1659 35.6462 44.8482C36.0013 42.0261 34.3192 39.2787 32.0765 37.5967C29.8338 35.9146 27.1425 35.0549 24.526 34.1204C20.0031 32.5131 15.555 30.6068 11.4807 28.0277C8.93897 26.4204 6.43458 24.4206 5.29453 21.5798C4.49088 19.5987 4.43481 17.3934 4.43481 15.2628C4.43481 14.4778 4.43481 13.6929 4.4535 12.9079C4.4535 12.0108 4.47219 11.1324 4.47219 10.2353C4.47219 9.80545 4.47219 9.3756 4.49088 8.94574C4.49088 8.57195 4.47219 8.25423 4.71516 7.9552C4.95812 7.65617 5.31322 7.52534 5.66832 7.41321C6.09817 7.26369 6.52803 7.11418 6.9392 6.96466C7.83629 6.64694 8.7147 6.25446 9.5931 5.93674C10.4902 5.60033 11.406 5.26392 12.2844 4.87144C13.4057 4.4229 14.5271 3.99304 15.6485 3.54449C18.2463 2.51657 20.8628 1.48865 23.4607 0.479423C23.9653 0.273839 24.4699 0.0869446 24.9932 0.0869446C25.5165 0.0869446 26.0211 0.273839 26.507 0.479423C32.469 2.8156 38.4496 5.17047 44.4115 7.50665C44.7293 7.63748 45.0844 7.76831 45.2899 8.06734C45.4021 8.19816 45.4581 8.38506 45.4955 8.57195Z" />
</g>
<defs>
<filter id="filter0_d" x="0.434814" y="0.0869446" width="49.1168" height="67.8261" filterUnits="userSpaceOnUse" color-interpolation-filters="sRGB">
<feFlood flood-opacity="0" result="BackgroundImageFix"/>
<feColorMatrix in="SourceAlpha" type="matrix" values="0 0 0 0 0 0 0 0 0 0 0 0 0 0 0 0 0 0 127 0" result="hardAlpha"/>
<feOffset dy="4"/>
<feGaussianBlur stdDeviation="2"/>
<feColorMatrix type="matrix" values="0 0 0 0 0 0 0 0 0 0 0 0 0 0 0 0 0 0 0.05 0"/>
<feBlend mode="normal" in2="BackgroundImageFix" result="effect1_dropShadow"/>
<feBlend mode="normal" in="SourceGraphic" in2="effect1_dropShadow" result="shape"/>
</filter>
</defs>
</svg>
