<svg width="15" height="17" viewBox="0 0 15 17" fill="none" xmlns="http://www.w3.org/2000/svg">
<path d="M7.04727 8.16C9.27157 8.16 11.0743 6.33356 11.0743 4.08C11.0743 1.82644 9.27157 0 7.04727 0C4.82298 0 3.02026 1.82644 3.02026 4.08C3.02026 6.33356 4.82298 8.16 7.04727 8.16ZM9.86618 9.18H9.34078C8.64235 9.50513 7.86526 9.69 7.04727 9.69C6.22929 9.69 5.45534 9.50513 4.75376 9.18H4.22836C1.89395 9.18 0 11.0989 0 13.464V14.79C0 15.6347 0.676412 16.32 1.51013 16.32H12.5844C13.4181 16.32 14.0945 15.6347 14.0945 14.79V13.464C14.0945 11.0989 12.2006 9.18 9.86618 9.18Z" fill="white"/>
</svg>
