<svg width="16" height="14" viewBox="0 0 16 14" fill="none" xmlns="http://www.w3.org/2000/svg">
<path d="M4.66666 5.75V8.25C4.66666 8.66422 4.33087 9 3.91666 9H0.75C0.335781 9 0 8.66422 0 8.25V5.75C0 5.33578 0.335781 5 0.75 5H3.91666C4.33087 5 4.66666 5.33578 4.66666 5.75ZM0 10.75V13.25C0 13.6642 0.335781 14 0.75 14H3.91666C4.33087 14 4.66666 13.6642 4.66666 13.25V10.75C4.66666 10.3358 4.33087 10 3.91666 10H0.75C0.335781 10 0 10.3358 0 10.75ZM3.91666 0H0.75C0.335781 0 0 0.335781 0 0.75V3.25C0 3.66422 0.335781 4 0.75 4H3.91666C4.33087 4 4.66666 3.66422 4.66666 3.25V0.75C4.66666 0.335781 4.33087 0 3.91666 0ZM6.41666 14H15.25C15.6642 14 16 13.6642 16 13.25V10.75C16 10.3358 15.6642 10 15.25 10H6.41666C6.00244 10 5.66666 10.3358 5.66666 10.75V13.25C5.66666 13.6642 6.00244 14 6.41666 14ZM5.66666 0.75V3.25C5.66666 3.66422 6.00244 4 6.41666 4H15.25C15.6642 4 16 3.66422 16 3.25V0.75C16 0.335781 15.6642 0 15.25 0H6.41666C6.00244 0 5.66666 0.335781 5.66666 0.75ZM6.41666 9H15.25C15.6642 9 16 8.66422 16 8.25V5.75C16 5.33578 15.6642 5 15.25 5H6.41666C6.00244 5 5.66666 5.33578 5.66666 5.75V8.25C5.66666 8.66422 6.00244 9 6.41666 9Z" fill="#8B8B8B"/>
</svg>
