<svg width="86" height="86" viewBox="0 0 86 86" fill="none" xmlns="http://www.w3.org/2000/svg">
<mask id="path-1-inside-1" fill="white">
<path d="M70 0H16C7.16344 0 0 7.16345 0 16V70C0 78.8366 7.16345 86 16 86H70C78.8366 86 86 78.8366 86 70V16C86 7.16344 78.8366 0 70 0Z"/>
</mask>
<path d="M70 0H16C7.16344 0 0 7.16345 0 16V70C0 78.8366 7.16345 86 16 86H70C78.8366 86 86 78.8366 86 70V16C86 7.16344 78.8366 0 70 0Z" stroke="#181818" stroke-width="0" mask="url(#path-1-inside-1)"/>
<g filter="url(#filter0_d)">
<path shape-rendering="geometricprecision" fill-rule="evenodd" clip-rule="evenodd" d="M63.4955 21.572C63.5329 21.7775 63.5329 22.0018 63.5329 22.2261C63.5329 27.59 63.5329 32.9538 63.5329 38.3177C60.7481 36.8225 57.9821 35.3087 55.1974 33.8135C55.1974 31.7951 55.1974 29.7953 55.1974 27.7768C51.6838 26.4873 48.1888 25.1977 44.6752 23.9081C44.1145 23.7025 43.5352 23.497 42.9371 23.497C42.4138 23.5157 41.9092 23.7025 41.4046 23.8708C38.3021 25.0108 35.181 26.1696 32.0785 27.3096C34.4334 31.9633 39.0871 34.9162 43.7594 37.0468C48.4318 39.1961 53.4032 40.7847 57.5896 43.8124C59.7202 45.3636 61.6452 47.326 62.6171 49.8117C63.5516 52.1479 63.5516 54.7457 63.5516 57.2688C63.5516 59.4741 63.5329 61.6608 63.5329 63.8662C63.5329 64.2213 63.5329 64.595 63.3273 64.8941C63.1217 65.2118 62.7666 65.3613 62.4115 65.4921C56.4309 67.847 50.4503 70.1832 44.4883 72.5381C44.0398 72.7063 43.5725 72.8932 43.1053 72.9118C42.5259 72.9305 41.9839 72.725 41.4606 72.5007C35.5174 70.1645 29.5741 67.8283 23.6122 65.4921C23.2945 65.3613 22.9581 65.2305 22.7338 64.9501C22.4909 64.6137 22.4722 64.1839 22.4722 63.754C22.4722 58.3902 22.4722 53.045 22.4722 47.6811C25.2569 49.1763 28.0229 50.6901 30.8077 52.1853C30.8077 54.2037 30.8077 56.2035 30.8077 58.2219C34.3213 59.5115 37.8162 60.8011 41.3298 62.0907C41.8718 62.2962 42.4138 62.4831 42.9932 62.4831C43.5912 62.4831 44.1519 62.2776 44.7126 62.072C47.3291 61.1188 49.927 60.147 52.5435 59.1938C52.8238 59.0817 53.1228 58.9695 53.3284 58.7453C53.534 58.5023 53.6088 58.1659 53.6462 57.8482C54.0013 55.0261 52.3192 52.2787 50.0765 50.5967C47.8337 48.9146 45.1425 48.0549 42.5259 47.1204C38.0031 45.5131 33.555 43.6068 29.4807 41.0277C26.9389 39.4204 24.4346 37.4206 23.2945 34.5798C22.4909 32.5987 22.4348 30.3934 22.4348 28.2628C22.4348 27.4778 22.4348 26.6929 22.4535 25.9079C22.4535 25.0108 22.4722 24.1324 22.4722 23.2353C22.4722 22.8055 22.4722 22.3756 22.4909 21.9457C22.4909 21.572 22.4722 21.2542 22.7151 20.9552C22.9581 20.6562 23.3132 20.5253 23.6683 20.4132C24.0981 20.2637 24.528 20.1142 24.9392 19.9647C25.8363 19.6469 26.7147 19.2545 27.5931 18.9367C28.4902 18.6003 29.4059 18.2639 30.2843 17.8714C31.4057 17.4229 32.5271 16.993 33.6484 16.5445C36.2463 15.5166 38.8628 14.4887 41.4606 13.4794C41.9653 13.2738 42.4699 13.0869 42.9932 13.0869C43.5165 13.0869 44.0211 13.2738 44.507 13.4794C50.4689 15.8156 56.4496 18.1705 62.4115 20.5067C62.7292 20.6375 63.0843 20.7683 63.2899 21.0673C63.402 21.1982 63.4581 21.3851 63.4955 21.572Z" fill="url(#paint1_linear)"/>
</g>
<defs>
<filter id="filter0_d" x="18.4348" y="13.0869" width="49.1168" height="67.8261" filterUnits="userSpaceOnUse" color-interpolation-filters="sRGB">
<feFlood flood-opacity="0" result="BackgroundImageFix"/>
<feColorMatrix in="SourceAlpha" type="matrix" values="0 0 0 0 0 0 0 0 0 0 0 0 0 0 0 0 0 0 127 0"/>
<feOffset dy="4"/>
<feGaussianBlur stdDeviation="2"/>
<feColorMatrix type="matrix" values="0 0 0 0 0 0 0 0 0 0 0 0 0 0 0 0 0 0 0.05 0"/>
<feBlend mode="normal" in2="BackgroundImageFix" result="effect1_dropShadow"/>
<feBlend mode="normal" in="SourceGraphic" in2="effect1_dropShadow" result="shape"/>
</filter>
<linearGradient id="paint0_linear" x1="22.4348" y1="43" x2="22.4348" y2="93.0604" gradientUnits="userSpaceOnUse">
<stop stop-color="#401F86"/>
<stop offset="0.479167" stop-color="#FF301D"/>
<stop offset="1" stop-color="#69006D"/>
</linearGradient>
<linearGradient id="paint1_linear" x1="42.9932" y1="13.0869" x2="42.9932" y2="72.913" gradientUnits="userSpaceOnUse">
<stop stop-color="#4D4D4D"/>
<stop offset="1" stop-color="#794747"/>
</linearGradient>
</defs>
</svg>
