<svg width="16" height="16" viewBox="0 0 16 16" fill="none" xmlns="http://www.w3.org/2000/svg">
<path d="M15 0H1C0.734784 0 0.48043 0.105357 0.292893 0.292893C0.105357 0.48043 0 0.734784 0 1L0 15C0 15.2652 0.105357 15.5196 0.292893 15.7071C0.48043 15.8946 0.734784 16 1 16H15C15.2652 16 15.5196 15.8946 15.7071 15.7071C15.8946 15.5196 16 15.2652 16 15V1C16 0.734784 15.8946 0.48043 15.7071 0.292893C15.5196 0.105357 15.2652 0 15 0V0ZM9 12.5C9 12.6326 8.94732 12.7598 8.85355 12.8536C8.75979 12.9473 8.63261 13 8.5 13H3.5C3.36739 13 3.24021 12.9473 3.14645 12.8536C3.05268 12.7598 3 12.6326 3 12.5V11.5C3 11.3674 3.05268 11.2402 3.14645 11.1464C3.24021 11.0527 3.36739 11 3.5 11H8.5C8.63261 11 8.75979 11.0527 8.85355 11.1464C8.94732 11.2402 9 11.3674 9 11.5V12.5ZM13 8.5C13 8.63261 12.9473 8.75979 12.8536 8.85355C12.7598 8.94732 12.6326 9 12.5 9H3.5C3.36739 9 3.24021 8.94732 3.14645 8.85355C3.05268 8.75979 3 8.63261 3 8.5V7.5C3 7.36739 3.05268 7.24021 3.14645 7.14645C3.24021 7.05268 3.36739 7 3.5 7H12.5C12.6326 7 12.7598 7.05268 12.8536 7.14645C12.9473 7.24021 13 7.36739 13 7.5V8.5ZM13 4.5C13 4.63261 12.9473 4.75979 12.8536 4.85355C12.7598 4.94732 12.6326 5 12.5 5H3.5C3.36739 5 3.24021 4.94732 3.14645 4.85355C3.05268 4.75979 3 4.63261 3 4.5V3.5C3 3.36739 3.05268 3.24021 3.14645 3.14645C3.24021 3.05268 3.36739 3 3.5 3H12.5C12.6326 3 12.7598 3.05268 12.8536 3.14645C12.9473 3.24021 13 3.36739 13 3.5V4.5Z" fill="#8B8B8B"/>
</svg>
