<svg width="20" height="14" viewBox="0 0 20 14" fill="none" xmlns="http://www.w3.org/2000/svg">
<path d="M3.25 2H1.75C1.33438 2 1 2.33437 1 2.75V6H0.25C0.1125 6 0 6.1125 0 6.25V7.75C0 7.8875 0.1125 8 0.25 8H1V11.25C1 11.6656 1.33438 12 1.75 12H3.25C3.66563 12 4 11.6656 4 11.25V2.75C4 2.33437 3.66563 2 3.25 2ZM19.75 6H19V2.75C19 2.33437 18.6656 2 18.25 2H16.75C16.3344 2 16 2.33437 16 2.75V11.25C16 11.6656 16.3344 12 16.75 12H18.25C18.6656 12 19 11.6656 19 11.25V8H19.75C19.8875 8 20 7.8875 20 7.75V6.25C20 6.1125 19.8875 6 19.75 6ZM14.25 0H12.75C12.3344 0 12 0.334375 12 0.75V6H8V0.75C8 0.334375 7.66563 0 7.25 0H5.75C5.33437 0 5 0.334375 5 0.75V13.25C5 13.6656 5.33437 14 5.75 14H7.25C7.66563 14 8 13.6656 8 13.25V8H12V13.25C12 13.6656 12.3344 14 12.75 14H14.25C14.6656 14 15 13.6656 15 13.25V0.75C15 0.334375 14.6656 0 14.25 0Z" fill="#8B8B8B"/>
</svg>
